<?xml version="1.0" encoding="UTF-8" standalone="no"?>
<!-- Created with Inkscape (http://www.inkscape.org/) -->

<svg
   width="90.764595mm"
   height="101.6mm"
   viewBox="0 0 90.764595 101.6"
   version="1.1"
   id="svg1"
   xml:space="preserve"
   xmlns="http://www.w3.org/2000/svg"
   xmlns:svg="http://www.w3.org/2000/svg"><defs
     id="defs1" /><g
     id="layer1"
     transform="translate(-49.23295,-85.284721)"><path
       style="fill:#ffffff;stroke-width:0.0171416"
       d="m 134.76807,96.57249 v -7.2052 l 5.22948,-4.08257 H 83.40579 l -34.172842,29.70572 h 22.66317 c -0.0411,0.56223 -0.05798,1.07062 -0.05798,1.6472 0,5.51517 1.91008,10.07708 5.734058,13.72153 3.82398,3.65046 8.533142,5.46307 14.109302,5.46307 1.3026,0 2.57985,-0.0974 3.82017,-0.27098 -0.7692,1.72001 -1.15744,3.31338 -1.15744,4.80014 0,2.61283 1.19042,5.40555 3.56318,8.3719 -10.3806,0.70657 -18.007834,2.57509 -22.869791,5.59943 -2.786348,1.71955 -5.027138,3.89042 -6.717863,6.49052 -1.690838,2.6192 -2.534114,5.42799 -2.534114,8.45651 0,2.55276 0.54567,4.85143 1.645462,6.89566 1.099792,2.04425 2.534115,3.72281 4.315942,5.02287 1.777537,1.3144 3.828254,2.40794 6.143361,3.29902 2.310947,0.88471 4.605451,1.51304 6.895322,1.86864 2.282581,0.35513 4.552081,0.52877 6.801321,0.52877 3.56364,0 7.13146,-0.45886 10.728092,-1.37241 3.58819,-0.92197 6.95331,-2.28638 10.09943,-4.09911 3.13778,-1.80046 5.69262,-4.25622 7.65225,-7.3338 1.95533,-3.09033 2.93544,-6.56299 2.93544,-10.40769 0,-2.91461 -0.59522,-5.56644 -1.78599,-7.97473 -1.18233,-2.40031 -2.62939,-4.37648 -4.35312,-5.91186 -1.72,-1.53793 -3.43955,-2.95153 -5.16337,-4.22484 -1.72001,-1.28188 -3.17506,-2.57984 -4.35738,-3.91925 -1.18661,-1.33524 -1.78182,-2.66017 -1.78182,-3.9645 0,-1.30213 0.45884,-2.55901 1.38003,-3.77444 0.91401,-1.2196 2.03035,-2.39394 3.33631,-3.52047 1.3064,-1.12433 2.61282,-2.37275 3.91495,-3.73936 1.30214,-1.36186 2.41848,-3.12933 3.33632,-5.29384 0.92198,-2.16405 1.37667,-4.61563 1.37667,-7.34398 0,-3.55936 -0.67393,-6.47188 -1.9969,-8.8142 -0.15708,-0.27051 -0.32215,-0.47714 -0.49613,-0.79963 L 131.4686,92.04194 v 4.52927 c -1.95626,0.24598 -1.75266,1.41442 -1.75266,2.8139 v 34.04319 c 0,1.57648 1.28987,2.86645 2.86646,2.86645 h 1.05534 c 1.57648,0 2.86646,-1.28986 2.86646,-2.86645 V 99.38511 c 0,-1.39612 0.20569,-2.56329 -1.73611,-2.81262 z m -28.40568,58.86416 c 0.30189,0.19851 0.97999,0.73574 2.04216,1.59765 1.07143,0.85809 1.79838,1.50702 2.18696,1.96171 0.38061,0.44021 0.947,1.10199 1.68703,1.9969 0.74419,0.89281 1.24841,1.66791 1.51303,2.31093 0.26462,0.6553 0.53341,1.44486 0.80601,2.36685 0.2608,0.91146 0.39287,1.84572 0.39287,2.79445 0,4.51065 -1.73656,7.85285 -5.20066,10.0169 -3.47265,2.16451 -7.61114,3.24741 -12.418922,3.24741 -2.43075,0 -4.81624,-0.28916 -7.16028,-0.84537 -2.33977,-0.56003 -4.58045,-1.41187 -6.717864,-2.54049 -2.137426,-1.12652 -3.856974,-2.69964 -5.159566,-4.70868 -1.306417,-2.02145 -1.959623,-4.34304 -1.959623,-6.94522 0,-2.73055 0.740019,-5.10377 2.228408,-7.11884 1.479929,-2.01762 3.423111,-3.54328 5.829322,-4.58137 2.397763,-1.044 4.828503,-1.7839 7.292353,-2.22204 2.46386,-0.4504 4.97332,-0.67601 7.52433,-0.67601 1.182332,0 2.099692,0.0665 2.752902,0.18417 0.12027,0.058 0.80219,0.54775 2.04644,1.47194 1.2446,0.91609 2.01762,1.4804 2.31523,1.68911 z m -0.88853,-26.61124 c -1.95963,2.34404 -4.69226,3.51584 -8.189812,3.51584 -3.13778,0 -5.89959,-1.2607 -8.27234,-3.78671 -2.38121,-2.51965 -4.0805,-5.37846 -5.118124,-8.5806 -1.041803,-3.20376 -1.56259,-6.34582 -1.56259,-9.43186 0,-3.62326 0.951288,-6.70768 2.852444,-9.25406 1.90163,-2.55311 4.62999,-3.83243 8.18564,-3.83243 3.14195,0 5.91985,1.33303 8.317722,4.01023 2.40621,2.66827 4.13004,5.66553 5.16385,8.98736 1.03763,3.31766 1.55401,6.49017 1.55401,9.52076 0,3.55774 -0.97963,6.51136 -2.93069,8.85147 z"
       id="path2" /></g></svg>
